<svg width="24" height="24" viewBox="0 0 24 24" xmlns="http://www.w3.org/2000/svg">
<path d="M4 12.5C4 13.175 4.5472 13.7222 5.22221 13.7222L18.0554 13.7222C18.7304 13.7222 19.2777 13.175 19.2777 12.5C19.2777 11.8249 18.7304 11.2777 18.0554 11.2777L5.22221 11.2777C4.5472 11.2777 4 11.8249 4 12.5Z"/>
<path d="M14.8479 7.26756C14.3207 7.68903 14.2349 8.45812 14.6564 8.98538L17.4657 12.5L14.6564 16.0146C14.2349 16.5419 14.3207 17.311 14.8479 17.7324C15.3752 18.1539 16.1443 18.0681 16.5658 17.5409L20.5951 12.5L16.5658 7.45913C16.1443 6.93187 15.3752 6.8461 14.8479 7.26756Z" />
</svg>
